# xmcd
#
# Track frame offsets:
#	180
#	14684
#	39719
#	58315
#	81493
#	100761
#	113636
#	132491
#	148074
#	170437
#	188224
#	202795
#	219400
#	239829
#	254669
#	271503
#
# Disc length: 3689 seconds
#
# Revision: 0
# Processed by: cddbd v1.5.1PL0 Copyright (c) Steve Scherf et al.
# Submitted via: dBpowerAMP V4.0
#
DISCID=f30e6710
DTITLE=Stevie Cochran - Live and not
DYEAR=1997
DGENRE=Blues Rock
TTITLE0=I've got a reason - Live
TTITLE1=Maybe it's you - Live
TTITLE2=Sometimes (You never know) - Not
TTITLE3=Rebound - Not
TTITLE4=Change my phone - Live
TTITLE5=Tenor madness - Live
TTITLE6=You amaze me - Not
TTITLE7=Leavin - Not
TTITLE8=Tough love - Live
TTITLE9=Trying to get thru to you - Live
TTITLE10=Lady today - Not
TTITLE11=Everybody's girl - Not
TTITLE12=Wolfman boogie - Live
TTITLE13=Don't need you no more - Live
TTITLE14=The time is right - Not
TTITLE15=The teeth encore - Live
EXTD=
EXTT0=
EXTT1=
EXTT2=
EXTT3=
EXTT4=
EXTT5=
EXTT6=
EXTT7=
EXTT8=
EXTT9=
EXTT10=
EXTT11=
EXTT12=
EXTT13=
EXTT14=
EXTT15=
PLAYORDER=
